<svg id="visual" viewBox="0 0 960 540" width="960" height="540" xmlns="http://www.w3.org/2000/svg" xmlns:xlink="http://www.w3.org/1999/xlink" version="1.1"><path d="M0 104L10.7 104C21.3 104 42.7 104 64 114.7C85.3 125.3 106.7 146.7 128 145.7C149.3 144.7 170.7 121.3 192 124.2C213.3 127 234.7 156 256 169.5C277.3 183 298.7 181 320 172C341.3 163 362.7 147 384 145.2C405.3 143.3 426.7 155.7 448 160.2C469.3 164.7 490.7 161.3 512 162.3C533.3 163.3 554.7 168.7 576 178.5C597.3 188.3 618.7 202.7 640 196.3C661.3 190 682.7 163 704 154C725.3 145 746.7 154 768 157.7C789.3 161.3 810.7 159.7 832 170.5C853.3 181.3 874.7 204.7 896 195.7C917.3 186.7 938.7 145.3 949.3 124.7L960 104L960 0L949.3 0C938.7 0 917.3 0 896 0C874.7 0 853.3 0 832 0C810.7 0 789.3 0 768 0C746.7 0 725.3 0 704 0C682.7 0 661.3 0 640 0C618.7 0 597.3 0 576 0C554.7 0 533.3 0 512 0C490.7 0 469.3 0 448 0C426.7 0 405.3 0 384 0C362.7 0 341.3 0 320 0C298.7 0 277.3 0 256 0C234.7 0 213.3 0 192 0C170.7 0 149.3 0 128 0C106.7 0 85.3 0 64 0C42.7 0 21.3 0 10.7 0L0 0Z" fill="#59b1e3"></path><path d="M0 190L10.7 189.2C21.3 188.3 42.7 186.7 64 194.8C85.3 203 106.7 221 128 214.7C149.3 208.3 170.7 177.7 192 183C213.3 188.3 234.7 229.7 256 247.7C277.3 265.7 298.7 260.3 320 255C341.3 249.7 362.7 244.3 384 244.3C405.3 244.3 426.7 249.7 448 247.8C469.3 246 490.7 237 512 238.8C533.3 240.7 554.7 253.3 576 261.3C597.3 269.3 618.7 272.7 640 262.7C661.3 252.7 682.7 229.3 704 228.5C725.3 227.7 746.7 249.3 768 259.3C789.3 269.3 810.7 267.7 832 275.8C853.3 284 874.7 302 896 293C917.3 284 938.7 248 949.3 230L960 212L960 102L949.3 122.7C938.7 143.3 917.3 184.7 896 193.7C874.7 202.7 853.3 179.3 832 168.5C810.7 157.7 789.3 159.3 768 155.7C746.7 152 725.3 143 704 152C682.7 161 661.3 188 640 194.3C618.7 200.7 597.3 186.3 576 176.5C554.7 166.7 533.3 161.3 512 160.3C490.7 159.3 469.3 162.7 448 158.2C426.7 153.7 405.3 141.3 384 143.2C362.7 145 341.3 161 320 170C298.7 179 277.3 181 256 167.5C234.7 154 213.3 125 192 122.2C170.7 119.3 149.3 142.7 128 143.7C106.7 144.7 85.3 123.3 64 112.7C42.7 102 21.3 102 10.7 102L0 102Z" fill="#00c9dd"></path><path d="M0 276L10.7 268C21.3 260 42.7 244 64 251.3C85.3 258.7 106.7 289.3 128 283.8C149.3 278.3 170.7 236.7 192 242C213.3 247.3 234.7 299.7 256 324C277.3 348.3 298.7 344.7 320 333C341.3 321.3 362.7 301.7 384 300.8C405.3 300 426.7 318 448 322.5C469.3 327 490.7 318 512 318C533.3 318 554.7 327 576 332.3C597.3 337.7 618.7 339.3 640 330.3C661.3 321.3 682.7 301.7 704 296.3C725.3 291 746.7 300 768 303.5C789.3 307 810.7 305 832 314C853.3 323 874.7 343 896 335C917.3 327 938.7 291 949.3 273L960 255L960 210L949.3 228C938.7 246 917.3 282 896 291C874.7 300 853.3 282 832 273.8C810.7 265.7 789.3 267.3 768 257.3C746.7 247.3 725.3 225.7 704 226.5C682.7 227.3 661.3 250.7 640 260.7C618.7 270.7 597.3 267.3 576 259.3C554.7 251.3 533.3 238.7 512 236.8C490.7 235 469.3 244 448 245.8C426.7 247.7 405.3 242.3 384 242.3C362.7 242.3 341.3 247.7 320 253C298.7 258.3 277.3 263.7 256 245.7C234.7 227.7 213.3 186.3 192 181C170.7 175.7 149.3 206.3 128 212.7C106.7 219 85.3 201 64 192.8C42.7 184.7 21.3 186.3 10.7 187.2L0 188Z" fill="#37dbb4"></path><path d="M0 384L10.7 368.8C21.3 353.7 42.7 323.3 64 333.3C85.3 343.3 106.7 393.7 128 397.2C149.3 400.7 170.7 357.3 192 359.2C213.3 361 234.7 408 256 422.5C277.3 437 298.7 419 320 408.2C341.3 397.3 362.7 393.7 384 403.5C405.3 413.3 426.7 436.7 448 441.2C469.3 445.7 490.7 431.3 512 424.2C533.3 417 554.7 417 576 417.8C597.3 418.7 618.7 420.3 640 417.7C661.3 415 682.7 408 704 402.7C725.3 397.3 746.7 393.7 768 394.5C789.3 395.3 810.7 400.7 832 406C853.3 411.3 874.7 416.7 896 410.3C917.3 404 938.7 386 949.3 377L960 368L960 253L949.3 271C938.7 289 917.3 325 896 333C874.7 341 853.3 321 832 312C810.7 303 789.3 305 768 301.5C746.7 298 725.3 289 704 294.3C682.7 299.7 661.3 319.3 640 328.3C618.7 337.3 597.3 335.7 576 330.3C554.7 325 533.3 316 512 316C490.7 316 469.3 325 448 320.5C426.7 316 405.3 298 384 298.8C362.7 299.7 341.3 319.3 320 331C298.7 342.7 277.3 346.3 256 322C234.7 297.7 213.3 245.3 192 240C170.7 234.7 149.3 276.3 128 281.8C106.7 287.3 85.3 256.7 64 249.3C42.7 242 21.3 258 10.7 266L0 274Z" fill="#a0e37d"></path><path d="M0 541L10.7 541C21.3 541 42.7 541 64 541C85.3 541 106.7 541 128 541C149.3 541 170.7 541 192 541C213.3 541 234.7 541 256 541C277.3 541 298.7 541 320 541C341.3 541 362.7 541 384 541C405.3 541 426.7 541 448 541C469.3 541 490.7 541 512 541C533.3 541 554.7 541 576 541C597.3 541 618.7 541 640 541C661.3 541 682.7 541 704 541C725.3 541 746.7 541 768 541C789.3 541 810.7 541 832 541C853.3 541 874.7 541 896 541C917.3 541 938.7 541 949.3 541L960 541L960 366L949.3 375C938.7 384 917.3 402 896 408.3C874.7 414.7 853.3 409.3 832 404C810.7 398.7 789.3 393.3 768 392.5C746.7 391.7 725.3 395.3 704 400.7C682.7 406 661.3 413 640 415.7C618.7 418.3 597.3 416.7 576 415.8C554.7 415 533.3 415 512 422.2C490.7 429.3 469.3 443.7 448 439.2C426.7 434.7 405.3 411.3 384 401.5C362.7 391.7 341.3 395.3 320 406.2C298.7 417 277.3 435 256 420.5C234.7 406 213.3 359 192 357.2C170.7 355.3 149.3 398.7 128 395.2C106.7 391.7 85.3 341.3 64 331.3C42.7 321.3 21.3 351.7 10.7 366.8L0 382Z" fill="#fede5b"></path></svg>