<?xml version="1.0" encoding="utf-8"?>
<!-- Generator: Adobe Illustrator 23.0.1, SVG Export Plug-In . SVG Version: 6.00 Build 0)  -->
<svg version="1.1" id="Layer_1" xmlns="http://www.w3.org/2000/svg" xmlns:xlink="http://www.w3.org/1999/xlink" x="0px" y="0px"
	 viewBox="0 0 511 323" style="enable-background:new 0 0 511 323;" xml:space="preserve">
<style type="text/css">
	.st0{display:none;fill:#A26BAD;}
	.st1{fill:#FEDE5B;}
	.st2{fill:#59B1E3;}
	.st3{fill:#194FA3;}
	.st4{fill:#5AB2E4;}
	.st5{fill:#1F53A5;}
	.st6{fill:#2155A6;}
	.st7{fill:#4176BB;}
	.st8{fill:#487DBE;}
	.st9{fill:#60B5E5;}
	.st10{fill:#5AB0E0;}
	.st11{fill:#1A51A4;}
	.st12{fill:#467ABE;}
</style>
<rect class="st0" width="511" height="323"/>
<g>
	<path class="st1" d="M88.88,145.53c-0.14-14.63-0.09-29.12,3.88-43.52c11.11-40.32,48.85-74.17,90.22-80.08
		c33.58-4.79,64.38,1.89,90.78,23.72c20.88,17.27,34.65,39.28,39.59,66.32c-3.44,1.53-6.9,0.77-10.26-0.17
		c-5.9-1.64-11.45-0.89-17.03,1.48c-9.73,4.14-18.47,9.88-27.07,15.9c-2.2-0.71-4.4-1.43-6.61-2.12
		c-14.24-4.44-28.72-6.55-43.63-4.59c-2.45,0.11-4.36-1.04-6.3-2.41c-11.2-7.84-23.22-9.61-35.86-4.02
		c-14.56,6.44-25.18,17.6-34.84,29.83C117.45,145.76,103.16,145.64,88.88,145.53z"/>
	<path class="st2" d="M258.98,129.18c8.6-6.02,17.34-11.76,27.07-15.9c5.58-2.37,11.13-3.12,17.03-1.48
		c3.36,0.94,6.81,1.7,10.26,0.17c6.03-0.4,10.39-4.06,14.83-7.59c11.93-9.48,17.12-9.74,29.92-1.43c2.65,1.72,5.23,3.56,7.85,5.32
		c10.48,7.05,18.7,6.34,27.75-2.59c9.2-9.07,15.36-20.47,23.16-30.62c3.57-4.64,7.28-9.08,11.79-12.83
		c14.39-11.95,31.47-8.61,44.26,3.13c11.82,10.85,19.01,24.71,24.85,39.35c4.57,11.45,7.99,23.28,10.69,35.3
		c0.51,2.26,1.83,4.78-0.51,6.91c-3.25-1.57-6.66-0.97-10.05-0.76c-68.97-0.03-137.94-0.07-206.91-0.08c-0.93,0-2.05-0.34-2.81,1.41
		c14.03,12.17,25.98,26.79,40.9,38.31c-0.35,0.71-0.69,1.43-1.04,2.14l-0.38,0.15c0,0-0.41-0.01-0.41-0.01
		c-0.83-0.09-1.6-0.03-2.15,0.72c-0.6,0.09-1.2,0.18-1.81,0.28c-0.39,0.19-0.78,0.39-1.17,0.58c-0.7,0.09-1.4,0.18-2.09,0.28
		c-1.99-1.96-3.37-0.11-4.9,0.78c-3.72,0.42-7.44,0.46-11.16,0.03c-1.6-0.5-2.97-2.41-4.91-0.79c-1.03-0.09-2.06-0.18-3.09-0.27
		c-0.66-0.22-1.32-0.44-1.98-0.67c-1.32-0.4-2.65-0.81-3.97-1.21c-0.44-0.24-0.87-0.47-1.31-0.71c-0.57-0.11-1.13-0.22-1.7-0.32
		c-0.4-0.23-0.81-0.47-1.21-0.7c0,0-0.39,0.03-0.39,0.03s-0.36-0.14-0.36-0.14c-0.48-0.83-1.27-0.97-2.13-0.91
		c-3.29-0.81-6.08-2.65-8.93-4.37c-0.29-0.23-0.58-0.47-0.87-0.7c-0.88-0.09-1.6-0.44-2.06-1.23c-0.34-0.25-0.69-0.5-1.03-0.75
		c-2.6-0.53-3.98-2.82-6.01-4.17c-0.33-0.28-0.66-0.55-0.99-0.83c-1.01-0.76-2.02-1.52-3.03-2.27c-0.27-0.25-0.54-0.51-0.81-0.76
		c0,0-0.12-0.1-0.12-0.1c-0.35-0.29-0.7-0.57-1.06-0.86c-8.22-6.31-15.9-13.23-23.03-20.75c-0.65-0.69-1.29-1.39-1.94-2.08
		c17.15,0,34.31,0,51.46,0c0.07-0.5,0.14-1.01,0.21-1.51C277.04,138.01,268.04,133.54,258.98,129.18z"/>
	<path class="st3" d="M329.04,185.81c-14.91-11.52-26.86-26.14-40.9-38.31c0.76-1.75,1.89-1.41,2.81-1.41
		c68.97,0.02,137.94,0.05,206.91,0.08c-0.06,2.44-2.31,2.02-3.64,2.64c-10.41,4.85-19.2,11.43-24.29,22.11c0,0-0.03,0.02-0.03,0.02
		c-0.32,0.3-0.65,0.6-0.97,0.9c-0.7,0.62-1.4,1.23-2.11,1.85c-7.64,4.72-15.29,9.43-22.93,14.15c-9.97,6.17-20.62,10.75-32.04,13.45
		c-12.58,2.97-25.3,3.49-38.11,1.9c-0.23-0.07-0.45-0.18-0.65-0.31c-10.5-17.4-22.41-22.26-41.13-16
		C330.79,187.08,329.95,186.35,329.04,185.81z"/>
	<path class="st4" d="M233,146.19c0.65,0.69,1.29,1.38,1.94,2.08c-3.13-1.32-5.01,1.11-7.12,2.51
		c-18.32,12.18-36.93,23.82-57.43,32.08c-19.35,7.8-39.31,12.48-60.32,11.07c-6.61-0.44-13.19-1.53-19.76-2.52
		c-1.71-0.26-3.22-0.43-4.81,0.4c-18.85,9.82-35.61,4.77-50.75-7.91c-11.94-9.99-21.86-21.85-28.82-35.96
		c0.38,0,0.75,0.01,1.13,0.01c2.92,2.1,5.84,4.2,8.75,6.29c0.27,1.22,1.01,1.79,2.27,1.66c1.36,0.98,2.71,1.96,4.07,2.94
		c0.4,1.58,1.42,2.2,3.01,1.95c0.87,0.5,1.75,1.01,2.62,1.51c0.63,1.95,2.52,2.58,3.98,3.55c14.77,9.75,30.95,16.59,47.5,22.55
		c3.12,1.12,7.02,3.02,10.1,1.09c7.28-4.56,14.1-9.84,18.77-17.33c1.26-0.77,2.51-1.54,3.77-2.3c15.55-3.31,27.93-12.04,39.09-22.85
		c0.98-0.18,1.97-0.36,2.95-0.53c1.98-0.1,3.96-0.29,5.94-0.29c23.72-0.07,47.44-0.1,71.16-0.15
		C231.69,146.08,232.35,146.13,233,146.19z"/>
	<path class="st5" d="M46.71,290.85c5.53-14.12,10.9-27.88,16.31-41.62c5.17-13.16,10.71-26.19,15.4-39.52
		c1.69-4.79,4.68-4.18,8.08-4.23c3.31-0.05,6.11-0.43,7.77,4c9.64,25.7,19.6,51.27,29.67,76.8c1.73,4.4,0.73,5.13-3.66,5.01
		c-10.28-0.28-10.21-0.1-13.16-10.27c-2.51-8.64-0.29-7.35-9.82-7.43c-8.49-0.07-16.99,0.08-25.48-0.07
		c-2.92-0.05-4.9,0.54-5.21,3.79c-0.05,0.49-0.3,0.95-0.44,1.43C62.13,292.07,62.13,292.07,46.71,290.85z M86.63,226.71
		c-4.97,12.23-9.38,23.08-13.79,33.92c-0.67,1.64,0.2,2.13,1.61,2.13c7.82,0.02,15.64,0.01,23.45,0.02c1.64,0,2.69-0.58,1.99-2.38
		C95.69,249.63,91.43,238.89,86.63,226.71z"/>
	<path class="st2" d="M373.75,203.2c12.82,1.59,25.53,1.08,38.11-1.9c11.42-2.7,22.06-7.28,32.04-13.45
		c7.64-4.72,15.29-9.44,22.93-14.15c-6.3,11.63-12.61,23.26-18.89,34.9c-4.21,7.8-9.51,14.72-15.8,21.02
		c-11.96,11.97-35.4,13.21-46.29-5.26C381.72,217.35,377.07,210.66,373.75,203.2z"/>
	<path class="st5" d="M383.06,261.75c0,8.16-0.26,16.33,0.1,24.47c0.19,4.32-1.37,5.89-5.31,4.97c-2.51-0.58-6.68,2.5-7.24-3.15
		c-0.12-1.26-1.63-0.12-2.4,0.25c-7.17,3.51-14.85,3.75-22.47,2.79c-11.97-1.51-21.57-12.76-22.61-25.73
		c-2.04-25.34,20.1-41.25,43.66-31.38c1.86,0.78,2.83,2.15,4.58-1.25c1.62-3.14,6.7-1.27,10.18-0.99c2.6,0.2,1.43,2.96,1.45,4.57
		C383.12,244.77,383.06,253.26,383.06,261.75z M370.71,261.5c0.11-10.63-7.62-19.13-17.54-19.27c-9.85-0.15-17.86,8.28-17.96,18.88
		c-0.09,10.72,7.54,19,17.6,19.1C363.02,280.32,370.59,272.4,370.71,261.5z"/>
	<path class="st5" d="M200.55,265.95c-6.49,0-12.99,0.1-19.47-0.04c-3.13-0.07-3.21,1.06-2.18,3.54
		c3.83,9.29,15.69,13.88,26.22,10.02c4.23-1.55,9.76,0.76,11.67,4.71c0.8,1.66-0.45,2-1.33,2.62c-10.62,7.51-30.32,5.82-40.06-3.43
		c-10.38-9.86-12.3-26.65-4.46-39c7.46-11.76,22.93-16.63,36.56-11.64c9.04,3.31,12.85,10.59,14.81,19.23
		c3.17,13.97,3.11,13.98-10.77,13.98C207.87,265.95,204.21,265.95,200.55,265.95z M195.05,255.98c4.5,0,9-0.17,13.48,0.06
		c3.33,0.16,3.53-1.12,2.62-3.81c-2.41-7.18-7.92-10.86-16.18-10.54c-7.95,0.3-14.62,5.13-16.4,11.65c-0.56,2.05-0.07,2.7,1.99,2.67
		C185.39,255.93,190.22,255.98,195.05,255.98z"/>
	<path class="st6" d="M239.99,259.74c0-3.66-0.19-7.34,0.06-10.98c0.23-3.4-0.8-4.85-4.41-4.6c-1.75,0.12-4.59,1.24-5.19-1.28
		c-0.64-2.66-0.61-5.75,0.13-8.37c0.56-1.95,3.26-1.05,4.94-0.93c3.47,0.26,4.75-0.99,4.53-4.51c-0.26-4.31,0.09-8.66-0.11-12.97
		c-0.14-2.96,0.71-4.14,3.88-4.05c10.74,0.32,8.52-1.26,8.77,8.58c0.07,2.66,0.25,5.35-0.04,7.98c-0.46,4.12,1.38,5.43,5.16,4.91
		c0.65-0.09,1.33-0.01,2-0.01c5.93,0.01,8.03,3.18,6.2,9.07c-0.66,2.13-2.23,1.6-3.61,1.66c-9.69,0.48-9.7,0.46-9.69,10.26
		c0,4.99-0.15,9.99,0.08,14.97c0.32,6.87,2.75,8.95,9.63,9.11c1.86,0.04,4.75-1.09,5.37,1.08c0.98,3.44,0.73,7.21,0,10.81
		c-0.07,0.33-1.09,0.61-1.7,0.68c-16.29,1.92-25.14-6.78-25.91-20.44c-0.21-3.65-0.03-7.32-0.03-10.98
		C240.02,259.74,240.01,259.74,239.99,259.74z"/>
	<path class="st6" d="M283.93,259.87c0-3.83-0.18-7.67,0.05-11.48c0.21-3.37-1.18-4.66-4.35-4.12c-4.46,0.75-5.65-1.08-5.56-5.46
		c0.09-3.95,0.83-6.04,5.19-5.32c3.84,0.64,4.94-1.24,4.72-4.85c-0.25-4.15,0.08-8.32-0.1-12.48c-0.12-2.89,0.64-4.21,3.86-4.12
		c10.98,0.29,8.61-1.15,8.89,8.47c0.01,0.5-0.01,1,0,1.5c0.08,3.49-1.03,7.72,0.56,10.27c1.84,2.95,6.42,0.91,9.79,1.18
		c2,0.16,2.84,0.63,3,2.86c0.57,7.94,0.67,8.22-7.35,7.84c-4.71-0.22-6.49,0.96-6.12,5.95c0.46,6.29,0.01,12.64,0.15,18.97
		c0.16,7.26,2.48,9.36,9.68,9.53c1.85,0.04,4.88-1.1,5.33,1.02c0.74,3.48,0.21,7.23,0.08,10.86c-0.01,0.25-1.07,0.62-1.66,0.68
		c-14.47,1.49-24.55-4.34-26-19.81c-0.36-3.79-0.05-7.65-0.05-11.48C284.01,259.87,283.97,259.87,283.93,259.87z"/>
	<path class="st6" d="M145.1,240c0,9.82-0.07,19.64,0.03,29.46c0.08,7.49,1.63,9.13,9.1,8.99c3.6-0.07,4.8,1.18,4.42,4.58
		c-0.18,1.64-0.13,3.33-0.01,4.99c0.17,2.33-0.71,3.09-3.12,3.24c-14.47,0.91-22.47-5.63-22.88-20.47
		c-0.56-20.63-0.17-41.28-0.27-61.92c-0.01-2.63,1.01-3.34,3.54-3.45c9.2-0.39,9.19-0.48,9.19,8.61
		C145.09,222.69,145.09,231.35,145.1,240z"/>
	<path class="st7" d="M150.99,147c-11.16,10.81-23.54,19.54-39.09,22.86c4.71-8.31,12.49-14.3,17.57-22.73
		c-1.05-0.09-1.7-0.19-2.35-0.19c-38.63,0-77.27,0-115.9,0.03c-1.43,0-3.05-0.47-4.17,0.98c-0.38,0-0.75-0.01-1.13-0.01
		c-0.69-0.98-0.88-1.92,0.65-2.09c1.48-0.16,2.99-0.08,4.49-0.09c25.94-0.08,51.88-0.16,77.81-0.24
		c14.29,0.12,28.58,0.23,42.87,0.35c1.26,1.48,2.99,1.04,4.57,1.06C141.21,146.99,146.1,146.99,150.99,147z"/>
	<path class="st8" d="M331.97,186.89c18.72-6.26,30.63-1.41,41.13,16c-14.81-2-28.26-7.68-40.97-15.29
		C332.07,187.36,332.02,187.12,331.97,186.89z"/>
	<path class="st7" d="M469.94,170.92c5.09-10.68,13.88-17.26,24.29-22.11c1.33-0.62,3.58-0.2,3.64-2.64
		c3.38-0.21,6.8-0.81,10.05,0.76C495.5,155.31,482.97,163.5,469.94,170.92z"/>
	<path class="st9" d="M315.08,190.72c1.53-0.9,2.91-2.74,4.9-0.78C318.52,191.32,316.77,190.84,315.08,190.72z"/>
	<path class="st9" d="M299.01,189.97c1.94-1.62,3.31,0.29,4.91,0.79C302.22,190.87,300.47,191.34,299.01,189.97z"/>
	<path class="st9" d="M331.97,186.89c0.05,0.23,0.11,0.47,0.16,0.7c-1.37,0.12-2.75,0.24-4.12,0.37c0.35-0.71,0.69-1.43,1.04-2.14
		C329.95,186.35,330.79,187.08,331.97,186.89z"/>
	<path class="st9" d="M282.87,185.06c0.86-0.05,1.65,0.08,2.13,0.91C284.28,185.67,283.58,185.36,282.87,185.06z"/>
	<path class="st9" d="M325.05,188.81c0.55-0.75,1.32-0.81,2.15-0.72C326.64,188.78,325.9,188.96,325.05,188.81z"/>
	<path class="st9" d="M293.93,189.03c0.66,0.22,1.32,0.44,1.98,0.67C295.11,189.9,294.43,189.75,293.93,189.03z"/>
	<path class="st9" d="M285.74,186.09c0.4,0.23,0.81,0.47,1.21,0.7C286.55,186.55,286.14,186.32,285.74,186.09z"/>
	<path class="st9" d="M288.65,187.12c0.44,0.24,0.87,0.47,1.31,0.71C289.52,187.59,289.08,187.35,288.65,187.12z"/>
	<path class="st9" d="M269.98,178.01c0.34,0.25,0.69,0.5,1.03,0.75C270.67,178.51,270.32,178.26,269.98,178.01z"/>
	<path class="st9" d="M262.98,173.01c0.33,0.28,0.66,0.55,0.99,0.83C263.64,173.56,263.31,173.29,262.98,173.01z"/>
	<path class="st7" d="M468.93,171.84c0.32-0.3,0.65-0.6,0.97-0.9C469.58,171.24,469.26,171.54,468.93,171.84z"/>
	<path class="st9" d="M259.14,169.97c0.27,0.26,0.54,0.51,0.81,0.76C259.68,170.48,259.41,170.23,259.14,169.97z"/>
	<path class="st9" d="M257.96,169.01c0.35,0.29,0.7,0.57,1.06,0.86C258.67,169.59,258.32,169.3,257.96,169.01z"/>
	<path class="st9" d="M273.07,179.99c0.29,0.23,0.58,0.47,0.87,0.7C273.65,180.46,273.36,180.22,273.07,179.99z"/>
	<path class="st9" d="M322.07,189.66c0.39-0.19,0.78-0.39,1.17-0.58C322.85,189.28,322.46,189.47,322.07,189.66z"/>
	<path class="st8" d="M233,146.19c-0.65-0.05-1.3-0.1-1.95-0.16c-0.21-2.04-1.81-2.93-3.18-4.14c-7.01-6.18-13.93-12.48-20.87-18.74
		c0.59-0.23,1.17-0.46,1.76-0.68c14.91-1.96,29.39,0.15,43.63,4.59c2.21,0.69,4.41,1.41,6.61,2.12c9.06,4.37,18.06,8.83,25.69,15.5
		c-0.07,0.5-0.14,1.01-0.21,1.51C267.31,146.19,250.15,146.19,233,146.19z"/>
	<path class="st10" d="M208.75,122.47c-0.59,0.23-1.17,0.46-1.76,0.68c-1.82,0-3.69-0.29-5.45,0.05
		c-16.65,3.25-32.03,9.41-45.39,20.12c-1.04,0.84-2.08,1.67-2.22,3.15c-0.98,0.18-1.97,0.36-2.95,0.53
		c-4.89-0.02-9.78-0.01-14.68-0.07c-1.58-0.02-3.31,0.42-4.57-1.06c9.66-12.22,20.28-23.39,34.84-29.83
		c12.65-5.6,24.66-3.83,35.86,4.02C204.39,121.42,206.29,122.58,208.75,122.47z"/>
	<path class="st3" d="M7.05,147.96c1.12-1.45,2.73-0.98,4.17-0.98c38.63-0.03,77.27-0.03,115.9-0.03c0.65,0,1.3,0.1,2.35,0.19
		c-5.08,8.43-12.86,14.41-17.57,22.73c-1.26,0.77-2.51,1.53-3.77,2.3c-1.31,0.1-2.65,0.06-3.92,0.33
		c-23.5,4.97-46.29,3.63-68.18-7.15c-2.56-1.26-5.04-3.32-8.26-3.03c-0.87-0.5-1.75-1.01-2.62-1.51c-0.31-1.71-1.59-1.93-3.01-1.95
		c-1.36-0.98-2.71-1.96-4.07-2.94c-0.18-1.34-0.91-1.93-2.27-1.66C12.89,152.15,9.97,150.05,7.05,147.96z"/>
	<path class="st11" d="M153.94,146.47c0.14-1.47,1.17-2.31,2.22-3.15c13.36-10.71,28.74-16.87,45.39-20.12
		c1.75-0.34,3.63-0.05,5.45-0.05c6.95,6.26,13.86,12.56,20.87,18.74c1.37,1.21,2.97,2.1,3.18,4.14
		c-23.72,0.05-47.44,0.08-71.16,0.15C157.9,146.18,155.92,146.37,153.94,146.47z"/>
	<path class="st12" d="M27.77,162.31c3.21-0.29,5.7,1.77,8.26,3.03c21.89,10.78,44.68,12.12,68.18,7.15
		c1.27-0.27,2.61-0.23,3.92-0.33c-4.67,7.49-11.49,12.77-18.77,17.33c-3.08,1.93-6.98,0.04-10.1-1.09
		c-16.55-5.96-32.73-12.8-47.5-22.55C30.29,164.89,28.41,164.26,27.77,162.31z"/>
	<path class="st12" d="M22.14,158.85c1.41,0.02,2.69,0.24,3.01,1.95C23.56,161.05,22.54,160.43,22.14,158.85z"/>
	<path class="st12" d="M15.81,154.25c1.36-0.26,2.09,0.33,2.27,1.66C16.82,156.04,16.07,155.47,15.81,154.25z"/>
</g>
</svg>
