<?xml version="1.0" encoding="utf-8"?>
<!-- Generator: Adobe Illustrator 23.0.1, SVG Export Plug-In . SVG Version: 6.00 Build 0)  -->
<svg version="1.1" id="visual" xmlns="http://www.w3.org/2000/svg" xmlns:xlink="http://www.w3.org/1999/xlink" x="0px" y="0px"
	 viewBox="0 0 960 87.43" style="enable-background:new 0 0 960 87.43;" xml:space="preserve">
<style type="text/css">
	.st0{fill:#1A51A4;}
	.st1{fill:#1B69B6;}
	.st2{fill:#2981C7;}
	.st3{fill:#3F99D6;}
	.st4{fill:#59B1E3;}
</style>
<path class="st0" d="M0,68l10,2.7c10,2.6,30,8,50,11.1c20,3.2,40,4.2,60,4.9c20,0.6,40,1,60,0.5s40-1.9,60-8c20-6.2,40-17.2,60-20.4
	c20-3.1,40,1.5,60,5.4c20,3.8,40,6.8,60,9.1c20,2.4,40,4,60-1s40-16.6,60-16.8s40,11.2,60,18.3c20,7.2,40,10.2,60,7.9
	c20-2.4,40-10,60-12s40,1.6,60-1c20-2.7,40-11.7,60-12.2s40,7.5,60,6.7c20-0.9,40-10.5,50-15.4l10-4.8V0h-10c-10,0-30,0-50,0
	s-40,0-60,0s-40,0-60,0s-40,0-60,0s-40,0-60,0s-40,0-60,0s-40,0-60,0s-40,0-60,0s-40,0-60,0s-40,0-60,0s-40,0-60,0s-40,0-60,0
	s-40,0-60,0s-40,0-60,0S80,0,60,0S20,0,10,0H0V68z"/>
<path class="st1" d="M0,69l10-3.2c10-3.1,30-9.5,50-9s40,7.9,60,11.9s40,4.6,60-0.5c20-5.2,40-16.2,60-22.4c20-6.1,40-7.5,60-7.5
	s40,1.4,60,5.4s40,10.6,60,10.5c20-0.2,40-7.2,60-8.9c20-1.6,40,2,60,2.4c20,0.3,40-2.7,60-1.9c20,0.9,40,5.5,60,6.5s40-1.6,60,1.5
	c20,3.2,40,12.2,60,16.5c20,4.4,40,4,60,1.2s40-8.2,60-10.2s40-0.6,50,0l10,0.7V0h-10c-10,0-30,0-50,0s-40,0-60,0s-40,0-60,0
	s-40,0-60,0s-40,0-60,0s-40,0-60,0s-40,0-60,0s-40,0-60,0s-40,0-60,0s-40,0-60,0s-40,0-60,0s-40,0-60,0s-40,0-60,0s-40,0-60,0
	S80,0,60,0S20,0,10,0H0V69z"/>
<path class="st2" d="M0,61l10-3.8c10-3.9,30-11.5,50-11.7s40,7.2,60,6.5s40-9.3,60-14.2c20-4.8,40-5.8,60-6c20-0.1,40,0.5,60,2.5
	s40,5.4,60,4.4s40-6.4,60-7.9s40,0.9,60,5.9s40,12.6,60,11.5c20-1.2,40-11.2,60-11.5c20-0.4,40,9,60,14s40,5.6,60,5.3s40-1.7,60-2.5
	s40-1.2,60-0.7s40,1.9,60,1.2s40-3.3,50-4.7l10-1.3V0h-10c-10,0-30,0-50,0s-40,0-60,0s-40,0-60,0s-40,0-60,0s-40,0-60,0s-40,0-60,0
	s-40,0-60,0s-40,0-60,0s-40,0-60,0s-40,0-60,0s-40,0-60,0s-40,0-60,0s-40,0-60,0s-40,0-60,0S80,0,60,0S20,0,10,0H0V61z"/>
<path class="st3" d="M0,18l10,1.7c10,1.6,30,5,50,5.5s40-1.9,60-0.9s40,5.4,60,8.5c20,3.2,40,5.2,60,5c20-0.1,40-2.5,60-6.1
	c20-3.7,40-8.7,60-8.5c20,0.1,40,5.5,60,8.8s40,4.7,60,3.5s40-4.8,60-7.2c20-2.3,40-3.3,60-3.8s40-0.5,60-0.5s40,0,60-0.3
	c20-0.4,40-1,60,2.5s40,11.1,60,14.5c20,3.3,40,2.3,60,0.8s40-3.5,50-4.5l10-1V0h-10c-10,0-30,0-50,0s-40,0-60,0s-40,0-60,0
	s-40,0-60,0s-40,0-60,0s-40,0-60,0s-40,0-60,0s-40,0-60,0s-40,0-60,0s-40,0-60,0s-40,0-60,0s-40,0-60,0s-40,0-60,0s-40,0-60,0
	S80,0,60,0S20,0,10,0H0V18z"/>
<path class="st4" d="M0,22l10-1.2c10-1.1,30-3.5,50-5s40-2.1,60-2.1s40,0.6,60,1c20,0.3,40,0.3,60-0.2s40-1.5,60,0.5s40,7,60,7.2
	c20,0.1,40-4.5,60-5s40,3.1,60,3.8s40-1.7,60-1.2s40,3.9,60,4.2s40-2.3,60-4.3s40-3.4,60-1.9s40,5.9,60,5.4s40-5.9,60-7.5
	c20-1.7,40,0.3,60,0.6c20,0.4,40-1,50-1.6l10-0.7V0h-10c-10,0-30,0-50,0s-40,0-60,0s-40,0-60,0s-40,0-60,0s-40,0-60,0s-40,0-60,0
	s-40,0-60,0s-40,0-60,0s-40,0-60,0s-40,0-60,0s-40,0-60,0s-40,0-60,0s-40,0-60,0s-40,0-60,0S80,0,60,0S20,0,10,0H0V22z"/>
</svg>
