<svg id="visual" viewBox="0 0 900 200" width="900" height="200" xmlns="http://www.w3.org/2000/svg" xmlns:xlink="http://www.w3.org/1999/xlink" version="1.1"><path d="M0 93L15 83.7C30 74.3 60 55.7 90 55C120 54.3 150 71.7 180 76C210 80.3 240 71.7 270 59.3C300 47 330 31 360 32.7C390 34.3 420 53.7 450 57.3C480 61 510 49 540 40.3C570 31.7 600 26.3 630 28C660 29.7 690 38.3 720 43.7C750 49 780 51 810 49C840 47 870 41 885 38L900 35L900 0L885 0C870 0 840 0 810 0C780 0 750 0 720 0C690 0 660 0 630 0C600 0 570 0 540 0C510 0 480 0 450 0C420 0 390 0 360 0C330 0 300 0 270 0C240 0 210 0 180 0C150 0 120 0 90 0C60 0 30 0 15 0L0 0Z" fill="#ffffff"></path><path d="M0 107L15 99.3C30 91.7 60 76.3 90 75.3C120 74.3 150 87.7 180 94C210 100.3 240 99.7 270 91C300 82.3 330 65.7 360 62.7C390 59.7 420 70.3 450 74.3C480 78.3 510 75.7 540 69.7C570 63.7 600 54.3 630 54.7C660 55 690 65 720 72C750 79 780 83 810 82C840 81 870 75 885 72L900 69L900 33L885 36C870 39 840 45 810 47C780 49 750 47 720 41.7C690 36.3 660 27.7 630 26C600 24.3 570 29.7 540 38.3C510 47 480 59 450 55.3C420 51.7 390 32.3 360 30.7C330 29 300 45 270 57.3C240 69.7 210 78.3 180 74C150 69.7 120 52.3 90 53C60 53.7 30 72.3 15 81.7L0 91Z" fill="#fff9e4"></path><path d="M0 141L15 135.7C30 130.3 60 119.7 90 118C120 116.3 150 123.7 180 126.3C210 129 240 127 270 120C300 113 330 101 360 96.3C390 91.7 420 94.3 450 94.7C480 95 510 93 540 87C570 81 600 71 630 73C660 75 690 89 720 95C750 101 780 99 810 100.3C840 101.7 870 106.3 885 108.7L900 111L900 67L885 70C870 73 840 79 810 80C780 81 750 77 720 70C690 63 660 53 630 52.7C600 52.3 570 61.7 540 67.7C510 73.7 480 76.3 450 72.3C420 68.3 390 57.7 360 60.7C330 63.7 300 80.3 270 89C240 97.7 210 98.3 180 92C150 85.7 120 72.3 90 73.3C60 74.3 30 89.7 15 97.3L0 105Z" fill="#fff4ca"></path><path d="M0 163L15 157.3C30 151.7 60 140.3 90 136C120 131.7 150 134.3 180 137C210 139.7 240 142.3 270 136C300 129.7 330 114.3 360 111.3C390 108.3 420 117.7 450 120C480 122.3 510 117.7 540 109.7C570 101.7 600 90.3 630 93.3C660 96.3 690 113.7 720 119.7C750 125.7 780 120.3 810 119.7C840 119 870 123 885 125L900 127L900 109L885 106.7C870 104.3 840 99.7 810 98.3C780 97 750 99 720 93C690 87 660 73 630 71C600 69 570 79 540 85C510 91 480 93 450 92.7C420 92.3 390 89.7 360 94.3C330 99 300 111 270 118C240 125 210 127 180 124.3C150 121.7 120 114.3 90 116C60 117.7 30 128.3 15 133.7L0 139Z" fill="#ffeeaf"></path><path d="M0 185L15 182.7C30 180.3 60 175.7 90 173C120 170.3 150 169.7 180 168.3C210 167 240 165 270 164.7C300 164.3 330 165.7 360 167.3C390 169 420 171 450 170C480 169 510 165 540 161.7C570 158.3 600 155.7 630 156C660 156.3 690 159.7 720 165C750 170.3 780 177.7 810 180.7C840 183.7 870 182.3 885 181.7L900 181L900 125L885 123C870 121 840 117 810 117.7C780 118.3 750 123.7 720 117.7C690 111.7 660 94.3 630 91.3C600 88.3 570 99.7 540 107.7C510 115.7 480 120.3 450 118C420 115.7 390 106.3 360 109.3C330 112.3 300 127.7 270 134C240 140.3 210 137.7 180 135C150 132.3 120 129.7 90 134C60 138.3 30 149.7 15 155.3L0 161Z" fill="#ffe994"></path><path d="M0 193L15 193C30 193 60 193 90 191.3C120 189.7 150 186.3 180 185C210 183.7 240 184.3 270 183.7C300 183 330 181 360 182.3C390 183.7 420 188.3 450 190.3C480 192.3 510 191.7 540 189.7C570 187.7 600 184.3 630 182.3C660 180.3 690 179.7 720 181.7C750 183.7 780 188.3 810 191C840 193.7 870 194.3 885 194.7L900 195L900 179L885 179.7C870 180.3 840 181.7 810 178.7C780 175.7 750 168.3 720 163C690 157.7 660 154.3 630 154C600 153.7 570 156.3 540 159.7C510 163 480 167 450 168C420 169 390 167 360 165.3C330 163.7 300 162.3 270 162.7C240 163 210 165 180 166.3C150 167.7 120 168.3 90 171C60 173.7 30 178.3 15 180.7L0 183Z" fill="#ffe379"></path><path d="M0 201L15 201C30 201 60 201 90 201C120 201 150 201 180 201C210 201 240 201 270 201C300 201 330 201 360 201C390 201 420 201 450 201C480 201 510 201 540 201C570 201 600 201 630 201C660 201 690 201 720 201C750 201 780 201 810 201C840 201 870 201 885 201L900 201L900 193L885 192.7C870 192.3 840 191.7 810 189C780 186.3 750 181.7 720 179.7C690 177.7 660 178.3 630 180.3C600 182.3 570 185.7 540 187.7C510 189.7 480 190.3 450 188.3C420 186.3 390 181.7 360 180.3C330 179 300 181 270 181.7C240 182.3 210 181.7 180 183C150 184.3 120 187.7 90 189.3C60 191 30 191 15 191L0 191Z" fill="#fede5b"></path></svg>